# xmcd
#
# Track frame offsets:
# 150
# 26262
# 41996
# 70372
# 87370
# 106159
# 123469
# 142183
# 156148
# 175361
# 189605
# 210926
# 226539
# 242193
# 251335
# 269132
# 289165
# 305884
# 321956
# 338601
#
# Disc length: 4723 seconds
#
#
# Revision: 0
# Processed by: cddbd v1.5.2PL0 Copyright (c) Steve Scherf et al.
# Submitted via: FreeRIP 2.945 
#
DISCID=2a127114
DTITLE=Caju e Castanha - Os Grandes sucessos de Caju e Castanha
DYEAR=2006
DGENRE=Embolada
TTITLE0=Futebol no inferno
TTITLE1=Embolando na embolada
TTITLE2=O poder que a bunda tem
TTITLE3=Embola rap
TTITLE4=O ladrão besta e o ladrão sabido
TTITLE5=A mulher feia e a mulher bonita
TTITLE6=O crente e o cachaceiro
TTITLE7=Corinthians X Santos
TTITLE8=O pobre o rico
TTITLE9=O professor de embolada
TTITLE10=História e glória
TTITLE11=Diferenciado
TTITLE12=Lavandeira do rio
TTITLE13=Santa Cruz X Sport
TTITLE14=Mulher de amigo meu
TTITLE15=A mulher do corno rico e a mulher do corno pobre
TTITLE16=Salário do deputado e salário do operário
TTITLE17=A fome zero zerou
TTITLE18=No rap ou no repente
TTITLE19=O filho do Doutor e a criança abandonada
EXTD=
EXTT0=
EXTT1=
EXTT2=
EXTT3=
EXTT4=
EXTT5=
EXTT6=
EXTT7=
EXTT8=
EXTT9=
EXTT10=
EXTT11=
EXTT12=
EXTT13=
EXTT14=
EXTT15=
EXTT16=
EXTT17=
EXTT18=
EXTT19=
PLAYORDER=
